<svg role="img" viewBox="0 0 24 24" xmlns="http://www.w3.org/2000/svg" id="Rockwellautomation--Streamline-Simple-Icons" height="24" width="24">
  <desc>
    Rockwellautomation Streamline Icon: https://streamlinehq.com
  </desc>
  <title>Rockwell Automation</title>
  <path d="m23.1252 6.157 -4.6678 -4.6678a0.7667 0.7667 0 0 0 -0.9801 -0.087l-8.983 6.0494c1.7005 0.1068 2.7313 0.7962 2.7313 2.3676 0 1.372 -0.74 2.2257 -1.9913 2.3746v0.0239c0.5814 0.1067 0.9676 0.3763 1.254 0.74 0.0997 0.1264 0.1685 0.2752 0.2079 0.434l0.7091 2.1498 3.0528 -7.6475a0.7082 0.7082 0 0 1 0.6572 -0.4452h2.6821l3.5668 8.9325h-2.2075c-0.448 0 -0.8664 -0.2837 -1.056 -0.7078 -0.113 -0.3264 -0.229 -0.6527 -0.344 -0.9787h-3.2396l-0.629 1.6865H9.0475c-0.2584 0 -0.4789 -0.191 -0.5238 -0.4522l-0.8046 -2.3409c-0.1124 -0.4002 -0.5098 -0.4634 -0.9016 -0.4634H6.034v3.2565H3.2789v-5.4148l-1.6486 1.1093a0.5568 0.5568 0 0 0 -0.2387 0.4564v3.4474c0 0.222 0.132 0.4213 0.3342 0.5098l15.5408 6.5045a0.7678 0.7678 0 0 0 0.8468 -0.1601l5.0075 -4.9865A2.983 2.983 0 0 0 24 15.7325v-7.465a2.9953 2.9953 0 0 0 -0.8748 -2.1106ZM8.3749 10.2797c0 -0.806 -0.5504 -0.9226 -1.1346 -0.9226H6.072v1.9h1.1262c0.5954 0 1.1767 -0.0773 1.1767 -0.9774zm6.8682 2.4223h1.8143l-0.8889 -2.5234ZM6.8303 7.4348 16.431 0.3223c0.1376 -0.1025 0.066 -0.3202 -0.1053 -0.3202H8.455a3.4405 3.4405 0 0 0 -2.4336 1.0083L1.0083 6.022A3.4405 3.4405 0 0 0 0 8.4557v7.0886c0 0.9128 0.3623 1.7876 1.0083 2.4336l5.0131 5.0117A3.4405 3.4405 0 0 0 8.455 23.998h6.8176c0.1896 0 0.2471 -0.257 0.0758 -0.3384l-13.5496 -6.388a1.6147 1.6147 0 0 1 -0.9268 -1.4604v-3.3997c0 -0.3552 0.1685 -0.6894 0.4536 -0.9l1.952 -1.4465V7.4348Z" fill="#000000" stroke-width="1"></path>
</svg>